<?xml version="1.0" standalone="no"?>
<!DOCTYPE svg PUBLIC "-//W3C//DTD SVG 20010904//EN"
 "http://www.w3.org/TR/2001/REC-SVG-20010904/DTD/svg10.dtd">
<svg version="1.0" xmlns="http://www.w3.org/2000/svg"
 width="512.000000pt" height="512.000000pt" viewBox="0 0 512.000000 512.000000"
 preserveAspectRatio="xMidYMid meet">
<metadata>
Created by potrace 1.14, written by Peter Selinger 2001-2017
</metadata>
<g transform="translate(0.000000,512.000000) scale(0.100000,-0.100000)"
fill="#000000" stroke="none">
<path d="M3198 5045 c-4 -4 -57 -10 -178 -20 -30 -2 -81 -9 -113 -15 -32 -6
-64 -9 -70 -7 -28 9 -33 -21 -33 -186 1 -92 -2 -167 -6 -167 -4 0 -4 -10 0
-22 4 -13 7 -63 6 -113 -3 -139 1 -128 -36 -106 -18 11 -61 34 -95 52 -35 18
-63 37 -63 41 0 4 -6 8 -13 8 -8 0 -42 18 -76 40 -34 22 -68 40 -76 40 -8 0
-15 4 -15 8 0 4 -20 18 -45 30 -25 12 -45 27 -45 34 0 6 -3 8 -7 5 -3 -4 -18
0 -31 9 -24 16 -26 16 -44 -7 -41 -54 -64 -82 -80 -97 -10 -9 -18 -20 -18 -24
0 -5 -8 -16 -17 -27 -22 -23 -90 -123 -93 -136 -1 -5 -15 -26 -31 -46 -16 -20
-29 -41 -29 -47 0 -5 -7 -15 -15 -22 -8 -7 -12 -16 -9 -21 3 -5 0 -9 -6 -9 -6
0 -9 -4 -6 -9 3 -5 -1 -12 -10 -15 -9 -4 -14 -9 -11 -12 3 -4 -1 -13 -9 -21
-8 -8 -12 -19 -9 -24 4 -5 2 -9 -4 -9 -5 0 -13 -10 -17 -22 -3 -12 -13 -28
-20 -36 -8 -7 -14 -19 -14 -26 0 -13 -17 -15 -117 -18 -35 -1 -63 -5 -63 -9 0
-5 -6 -6 -14 -3 -7 3 -47 -1 -89 -9 l-75 -14 -6 40 c-11 66 -51 108 -106 112
-16 1 -89 -35 -91 -44 0 -3 -3 -15 -5 -26 -6 -30 -6 -46 1 -95 6 -44 5 -45
-27 -59 -57 -23 -122 -52 -148 -65 -101 -53 -204 -114 -240 -144 -8 -6 -46
-38 -85 -69 -92 -75 -225 -205 -225 -221 0 -7 -6 -15 -14 -18 -7 -3 -28 -26
-47 -52 -18 -26 -36 -49 -39 -52 -12 -10 -112 -169 -108 -173 1 -3 -4 -13 -13
-23 -9 -11 -23 -35 -32 -54 -8 -19 -31 -69 -50 -110 -36 -79 -102 -273 -112
-331 -3 -19 -10 -50 -15 -69 -38 -143 -51 -465 -26 -640 3 -19 7 -48 9 -65 20
-152 54 -206 122 -199 89 10 117 40 131 139 7 47 58 146 100 193 35 40 122
108 134 105 3 -1 12 5 20 12 8 7 29 17 45 21 17 4 35 10 41 15 24 19 178 29
237 16 102 -22 170 -61 241 -138 54 -59 57 -61 98 -56 75 9 82 11 111 39 29
29 29 29 31 68 5 65 48 153 111 225 56 66 160 138 153 108 -2 -9 8 -54 22 -98
5 -16 11 -41 14 -55 14 -62 25 -109 41 -165 9 -33 18 -71 20 -85 2 -14 4 -25
5 -25 1 0 4 -13 6 -30 3 -16 8 -32 12 -35 4 -3 8 -18 10 -35 2 -16 7 -41 12
-55 5 -14 14 -50 20 -80 6 -30 16 -66 20 -80 5 -14 12 -36 14 -50 10 -51 15
-70 21 -81 4 -5 9 -29 12 -51 2 -23 9 -50 14 -60 6 -10 7 -23 4 -28 -3 -5 0
-12 6 -15 5 -4 8 -13 5 -20 -2 -7 -2 -16 2 -19 3 -4 7 -12 9 -19 1 -7 9 -41
18 -77 9 -36 17 -70 18 -77 2 -7 6 -15 9 -19 4 -3 4 -12 1 -20 -3 -8 0 -14 6
-14 6 0 8 -6 6 -12 -3 -7 2 -31 9 -53 17 -48 13 -51 -64 -58 -30 -3 -66 -8
-80 -11 -14 -4 -43 -8 -65 -10 -22 -3 -40 -5 -40 -6 0 -2 -51 -10 -82 -12 -13
-1 -23 -5 -23 -8 0 -3 -10 -6 -22 -7 -29 -1 -148 -28 -212 -47 -27 -8 -53 -13
-57 -10 -4 2 -9 0 -11 -5 -1 -6 -16 -12 -33 -15 -16 -2 -30 -5 -30 -6 0 -1 -7
-3 -15 -5 -32 -6 -206 -68 -214 -76 -6 -5 -17 -9 -25 -9 -15 0 -256 -115 -275
-132 -6 -5 -47 -32 -90 -60 -128 -83 -262 -228 -313 -338 -36 -77 -53 -122
-56 -142 l-2 -23 2353 -1 2352 0 -6 20 c-4 12 -14 39 -24 61 -10 22 -19 45
-20 50 -4 17 -44 88 -79 140 -29 42 -116 133 -163 170 -52 41 -128 95 -134 95
-4 0 -15 6 -23 14 -14 12 -192 104 -246 127 -24 10 -68 26 -75 27 -3 1 -38 15
-79 31 -40 17 -77 28 -82 25 -5 -3 -9 0 -9 5 0 6 -3 10 -7 9 -5 -1 -28 4 -53
12 -25 7 -51 13 -57 13 -7 0 -13 3 -13 7 0 4 -6 7 -12 7 -7 0 -44 8 -81 18
-37 9 -73 18 -80 19 -7 2 -30 7 -52 11 -22 5 -49 10 -60 11 -11 1 -20 3 -20 4
0 3 -38 11 -70 15 -16 2 -41 6 -55 9 -14 3 -45 8 -70 11 -25 3 -58 8 -75 11
-38 6 -115 15 -185 19 -30 2 -57 5 -60 6 -8 4 -108 9 -220 12 -58 1 -109 5
-115 8 -13 7 -376 -2 -520 -13 l-40 -3 -7 45 c-4 25 -10 56 -13 70 -3 14 -9
39 -12 55 -2 17 -10 36 -15 42 -6 7 -8 13 -5 13 3 0 -2 26 -10 58 -14 53 -17
65 -27 110 -2 9 -9 37 -16 62 -12 44 -17 64 -26 107 -2 12 -9 34 -14 48 -5 14
-8 25 -5 25 2 0 -5 30 -16 68 -11 37 -22 80 -25 96 -2 15 -14 61 -25 102 -11
40 -22 82 -24 94 -10 43 -13 57 -28 113 -8 31 -13 57 -10 57 3 0 0 7 -7 15 -7
8 -10 15 -7 15 3 0 -8 47 -23 105 -15 57 -25 106 -22 110 3 3 1 5 -4 5 -5 0
-10 9 -11 20 -2 20 2 21 65 22 44 1 58 -10 108 -85 26 -40 51 -73 56 -75 4 -2
8 -9 8 -15 0 -7 14 -26 30 -44 17 -18 30 -35 30 -39 0 -4 12 -19 27 -34 16
-15 35 -37 43 -48 14 -21 40 -30 40 -14 0 4 26 20 58 37 31 16 64 35 72 41 8
6 35 22 60 35 25 13 52 28 60 35 8 6 47 28 85 49 39 21 72 41 75 44 6 7 77 41
87 41 4 0 7 -70 7 -155 1 -85 -3 -155 -7 -155 -5 0 -5 -5 -1 -12 4 -6 8 -70 8
-142 l1 -131 25 0 c14 0 28 -3 31 -8 3 -4 35 -8 72 -10 37 -1 67 -5 67 -9 0
-3 26 -9 58 -12 64 -6 62 -6 135 -7 28 0 101 -2 162 -4 63 -2 114 0 121 6 8 7
14 6 19 -1 3 -6 11 -7 17 -4 16 10 69 11 75 1 2 -4 10 -4 16 0 7 4 35 9 62 11
28 2 95 10 149 18 55 7 105 14 111 14 15 0 15 -14 16 319 l2 289 51 -29 c28
-16 62 -34 76 -41 14 -7 28 -17 32 -22 3 -5 13 -11 21 -12 8 -1 28 -10 44 -21
43 -29 65 -41 103 -61 19 -9 40 -20 45 -25 29 -22 85 -56 85 -51 0 3 14 -5 31
-17 l32 -22 38 42 c22 24 39 46 39 49 0 4 13 21 28 37 30 33 151 211 196 290
16 28 34 53 40 57 6 4 7 8 2 8 -5 0 -4 6 2 13 6 6 32 55 58 107 26 52 52 98
58 102 6 4 7 8 3 8 -5 0 1 16 13 35 12 20 19 42 16 51 -3 8 -2 13 3 9 5 -3 12
8 16 25 4 16 11 32 16 35 5 4 9 15 9 26 0 10 4 19 8 19 5 0 9 6 9 13 1 6 4 27
8 45 5 22 4 32 -5 32 -7 0 -32 14 -57 30 -24 17 -46 30 -49 30 -7 0 -195 110
-226 132 -16 11 -28 16 -28 12 0 -4 -8 0 -17 8 -10 9 -36 25 -59 36 -22 11
-46 27 -53 35 -10 13 -8 17 11 23 13 3 25 10 28 13 3 4 64 41 135 81 72 41
132 78 133 82 2 5 7 6 11 3 5 -2 23 7 41 20 19 14 40 25 47 25 7 0 13 4 13 9
0 5 15 15 34 22 42 15 53 47 31 89 -9 17 -13 35 -10 39 3 5 0 11 -5 13 -6 2
-12 10 -14 18 -4 23 -21 62 -70 159 -24 50 -41 92 -38 95 3 4 0 6 -6 6 -6 0
-14 10 -18 23 -4 12 -23 49 -44 82 -20 34 -40 68 -44 75 -21 43 -151 237 -179
268 -11 12 -18 22 -15 22 3 0 -15 21 -39 47 -23 26 -43 53 -43 59 0 21 -31 24
-58 7 -49 -32 -67 -43 -99 -57 -18 -8 -33 -20 -33 -26 0 -6 -4 -9 -9 -5 -5 3
-15 -1 -23 -8 -7 -7 -29 -21 -48 -30 -19 -9 -53 -28 -75 -42 -22 -13 -62 -36
-90 -51 -27 -15 -52 -29 -55 -33 -3 -4 -17 -12 -31 -18 l-26 -11 0 295 c0 162
-4 298 -9 303 -11 10 -217 40 -279 40 -25 0 -55 5 -66 10 -10 6 -19 7 -19 3 0
-5 -19 -7 -42 -5 -24 2 -50 3 -58 3 -16 -1 -58 -1 -105 0 -16 1 -34 0 -40 -1
-23 -4 -105 -1 -113 4 -5 3 -11 3 -14 1z m37 -208 c22 1 69 5 105 9 38 4 82 2
105 -5 26 -7 41 -7 43 -1 2 6 7 8 10 6 4 -2 52 -7 107 -10 118 -8 135 -12 136
-34 0 -9 1 -131 1 -271 l1 -254 -24 -18 c-13 -10 -30 -19 -36 -19 -7 0 -13 -4
-13 -9 0 -5 -10 -11 -23 -15 -13 -3 -34 -14 -46 -26 -13 -11 -27 -17 -31 -15
-4 3 -13 -2 -20 -10 -7 -8 -18 -15 -25 -15 -8 0 -15 -4 -17 -8 -1 -5 -33 -25
-71 -46 l-68 -37 -62 37 c-34 20 -87 50 -117 67 -30 17 -57 33 -60 37 -3 3
-27 17 -55 30 -27 13 -55 29 -60 34 -7 7 -11 108 -11 284 -1 310 -12 276 95
286 29 3 55 7 58 10 3 3 13 2 22 -2 9 -4 34 -7 56 -5z m-865 -427 c3 -4 25
-18 50 -32 25 -14 61 -34 81 -46 20 -11 47 -26 60 -34 13 -7 31 -18 39 -24 8
-7 40 -25 70 -41 62 -33 110 -63 125 -78 6 -6 9 -81 8 -190 -2 -231 1 -211
-21 -192 -10 10 -24 17 -30 17 -7 0 -12 4 -12 8 0 4 -26 21 -57 37 -32 17 -61
34 -64 38 -3 5 -9 8 -13 8 -3 0 -32 11 -63 24 -31 14 -67 28 -80 31 -13 4 -26
10 -29 15 -3 5 -10 7 -15 4 -5 -4 -9 -1 -9 6 0 7 -3 10 -6 6 -4 -3 -22 0 -40
8 -19 8 -34 12 -34 10 0 -2 -21 2 -47 10 -60 17 -101 27 -133 30 -14 1 -37 6
-52 10 -27 7 -27 7 -10 33 9 15 20 30 25 33 5 3 7 8 5 10 -1 2 8 22 21 44 14
22 30 49 36 60 29 51 89 135 96 135 5 0 8 3 7 8 -2 4 8 22 22 40 18 24 29 31
44 26 12 -4 23 -10 26 -14z m2066 -2 c10 -13 37 -50 58 -83 22 -33 43 -61 48
-63 4 -2 8 -9 8 -15 0 -6 6 -18 14 -26 7 -9 25 -36 38 -61 14 -25 35 -63 48
-85 42 -73 118 -225 113 -225 -3 0 2 -11 11 -25 9 -13 16 -26 16 -29 0 -9
-191 -122 -202 -118 -5 1 -8 -2 -8 -7 0 -5 -13 -14 -30 -21 -16 -7 -30 -16
-30 -21 0 -5 -9 -9 -20 -9 -11 0 -20 -4 -20 -9 0 -5 -8 -11 -17 -14 -10 -4
-36 -18 -58 -31 -76 -49 -84 -50 -142 -22 -28 15 -55 31 -58 36 -3 6 -15 10
-26 10 -11 0 -17 5 -14 10 4 6 -7 13 -24 16 -17 4 -31 10 -31 15 0 4 -19 17
-42 28 -58 28 -112 61 -120 74 -3 5 -6 103 -6 217 l1 207 41 25 c23 15 58 36
79 47 20 12 54 31 75 43 20 12 48 28 62 36 14 7 43 25 65 38 22 13 56 32 75
41 19 10 41 24 48 31 19 17 26 15 48 -10z m-1374 -400 c14 -10 30 -18 35 -18
5 0 19 -9 31 -21 12 -11 27 -17 32 -14 6 3 10 2 10 -3 0 -5 17 -17 38 -28 20
-10 40 -23 44 -29 5 -7 8 -7 8 0 0 6 3 6 8 -1 4 -5 29 -22 55 -37 l49 -27 46
26 c26 14 52 30 57 34 6 4 37 22 70 40 33 18 69 38 80 44 10 6 25 17 33 24 7
7 18 10 23 7 5 -4 9 -2 9 3 0 7 42 32 53 32 1 0 1 -97 1 -215 -1 -210 -1 -215
20 -221 11 -4 23 -10 26 -14 6 -9 108 -68 133 -76 9 -4 17 -10 17 -15 0 -5 9
-9 19 -9 11 0 21 -4 23 -8 3 -9 42 -32 91 -54 15 -7 27 -20 27 -31 0 -10 -4
-15 -10 -12 -5 3 -10 1 -10 -4 0 -6 -4 -11 -9 -11 -13 0 -135 -73 -139 -82 -2
-5 -9 -8 -15 -8 -7 0 -48 -22 -92 -49 l-80 -48 -1 -207 c-1 -113 -4 -209 -7
-213 -4 -3 -15 1 -24 9 -10 9 -28 19 -40 22 -13 4 -23 11 -23 16 0 4 -13 13
-29 18 -46 16 -141 80 -148 100 -14 43 -116 242 -129 253 -8 6 -14 16 -14 21
0 15 -62 108 -72 108 -4 0 -8 5 -8 10 0 18 -137 178 -230 267 -19 18 -30 33
-25 33 6 0 10 82 10 209 -1 228 -3 221 57 179z m1298 -747 c3 -4 17 -14 31
-22 15 -8 50 -27 79 -43 30 -15 60 -34 68 -42 7 -8 19 -14 26 -14 7 0 23 -10
36 -22 14 -13 25 -21 25 -18 1 3 38 -16 83 -42 l81 -48 -20 -47 c-11 -27 -38
-83 -59 -125 -22 -43 -37 -78 -34 -78 2 0 -4 -9 -15 -21 -11 -12 -25 -35 -32
-53 -7 -17 -17 -35 -21 -41 -25 -31 -68 -102 -68 -112 0 -7 -3 -13 -7 -13 -5
-1 -30 -34 -58 -75 -52 -77 -65 -83 -105 -50 -8 6 -30 17 -47 25 -18 7 -33 16
-33 20 0 4 -8 10 -17 14 -10 3 -40 19 -68 35 -27 16 -63 37 -80 45 -16 9 -48
27 -70 41 -22 13 -48 27 -57 31 -10 3 -18 10 -18 15 0 5 -7 9 -15 9 -22 0 -24
26 -23 243 l1 199 51 28 c28 16 55 28 59 27 5 -1 13 6 18 16 6 9 18 17 29 17
10 0 20 3 22 8 2 4 37 27 78 50 41 24 82 47 90 52 16 10 61 4 70 -9z m-1335
-491 c-3 -5 -11 -10 -16 -10 -6 0 -7 5 -4 10 3 6 11 10 16 10 6 0 7 -4 4 -10z
m-222 -77 c5 -50 4 -52 -53 -82 -25 -13 -52 -30 -61 -37 -8 -8 -20 -14 -26
-14 -6 0 -21 -9 -35 -19 -14 -11 -31 -21 -39 -23 -7 -2 -20 -9 -27 -15 -28
-27 -31 -11 -6 30 28 45 137 157 153 157 5 0 16 6 23 13 12 11 61 36 65 33 1
-1 3 -20 6 -43z m635 -119 c33 4 56 15 76 36 l30 29 50 -27 c28 -15 53 -30 54
-34 2 -5 9 -8 15 -9 7 0 27 -10 46 -23 l34 -22 -1 -259 c0 -143 -1 -267 -1
-276 -1 -11 -14 -16 -52 -18 -28 -1 -61 -6 -73 -11 -13 -4 -28 -5 -34 -1 -6 3
-28 5 -49 2 -83 -9 -273 -12 -273 -4 0 9 -106 10 -115 1 -7 -7 -45 2 -45 11 0
3 -21 6 -47 6 l-48 0 -1 278 c0 272 0 279 20 288 12 5 44 23 71 39 28 16 70
41 95 54 25 13 54 31 64 39 18 13 24 10 79 -46 59 -59 59 -59 105 -53z"/>
</g>
</svg>
