<?xml version="1.0" standalone="no"?>
<!DOCTYPE svg PUBLIC "-//W3C//DTD SVG 20010904//EN"
 "http://www.w3.org/TR/2001/REC-SVG-20010904/DTD/svg10.dtd">
<svg version="1.0" xmlns="http://www.w3.org/2000/svg"
 width="793.000000pt" height="793.000000pt" viewBox="0 0 793.000000 793.000000"
 preserveAspectRatio="xMidYMid meet">
<metadata>
Created by potrace 1.11, written by Peter Selinger 2001-2013
</metadata>
<g transform="translate(0.000000,793.000000) scale(0.100000,-0.100000)"
fill="#000000" stroke="none">
<path d="M4885 7799 c-247 -18 -482 -47 -527 -64 -17 -7 -18 -38 -18 -471 0
-255 -4 -464 -8 -464 -4 0 -12 4 -18 9 -5 5 -70 44 -144 86 -74 43 -178 103
-230 133 -52 31 -138 80 -190 110 -52 30 -121 70 -153 88 -33 19 -62 34 -66
34 -4 0 -32 -30 -62 -66 -30 -37 -59 -72 -64 -78 -22 -23 -134 -174 -186 -251
-101 -147 -228 -361 -311 -522 -37 -71 -41 -73 -182 -74 -89 -1 -133 -5 -266
-28 -36 -6 -79 -13 -97 -16 l-32 -6 -12 62 c-13 66 -56 134 -99 156 -14 7 -45
13 -70 13 -60 0 -111 -35 -141 -96 -21 -45 -22 -51 -10 -123 7 -42 17 -81 22
-87 6 -7 -9 -18 -41 -32 -28 -12 -53 -22 -56 -22 -6 0 -94 -39 -184 -83 -74
-36 -244 -132 -276 -156 -12 -9 -32 -23 -44 -31 -272 -182 -552 -467 -758
-772 -40 -58 -72 -110 -72 -113 0 -4 -9 -20 -20 -35 -61 -86 -196 -386 -256
-570 -19 -58 -40 -121 -46 -140 -16 -48 -46 -187 -64 -290 -7 -47 -19 -111
-24 -143 -30 -163 -35 -573 -10 -752 5 -33 16 -113 25 -179 20 -141 41 -194
91 -232 31 -24 47 -29 93 -28 90 1 173 56 187 123 32 163 65 253 122 331 69
94 209 210 302 250 14 6 34 15 45 21 30 15 122 40 190 51 66 11 280 4 299 -10
6 -5 31 -14 55 -21 96 -28 195 -97 274 -192 26 -32 62 -65 79 -73 34 -17 113
-22 122 -7 3 5 22 12 43 16 74 14 117 69 133 172 11 72 43 161 72 205 10 14
18 29 18 33 0 14 97 122 150 168 45 39 132 97 145 97 6 0 18 -39 41 -135 14
-55 33 -136 45 -180 11 -44 26 -107 34 -140 8 -33 28 -114 45 -180 17 -66 40
-156 50 -200 11 -44 28 -116 39 -160 10 -44 29 -120 41 -170 12 -49 26 -99 30
-110 5 -11 16 -51 24 -90 23 -104 85 -360 110 -450 14 -51 33 -128 65 -265 10
-41 20 -82 22 -90 3 -11 -9 -16 -51 -22 -124 -15 -287 -38 -310 -44 -14 -4
-59 -12 -100 -19 -125 -21 -244 -45 -260 -51 -8 -4 -42 -12 -75 -20 -33 -7
-96 -22 -140 -34 -44 -11 -98 -25 -120 -31 -48 -12 -361 -116 -390 -129 -11
-5 -49 -21 -85 -35 -36 -14 -92 -39 -125 -54 -33 -16 -82 -39 -110 -52 -164
-78 -375 -216 -506 -331 -123 -109 -255 -277 -295 -375 -15 -36 -23 -54 -73
-166 -12 -27 -24 -62 -28 -78 l-5 -29 3650 0 c2008 0 3653 4 3656 8 3 5 -4 26
-14 48 -11 21 -33 73 -50 114 -45 107 -59 136 -110 215 -50 79 -58 89 -155
189 -223 230 -582 438 -1015 586 -36 12 -74 26 -85 30 -11 4 -51 17 -90 28
-229 67 -244 71 -355 96 -30 7 -62 15 -70 18 -16 7 -147 32 -270 53 -41 7 -86
15 -100 19 -14 4 -74 13 -135 22 -100 13 -165 21 -455 53 -263 29 -839 35
-1286 15 l-131 -7 -6 64 c-3 35 -14 91 -23 124 -9 33 -24 94 -34 135 -10 41
-27 111 -39 155 -11 44 -31 127 -46 185 -14 58 -35 141 -46 185 -11 44 -26
109 -35 145 -8 36 -20 81 -26 100 -6 19 -19 68 -29 110 -17 75 -33 140 -83
340 -15 58 -33 134 -42 170 -8 36 -19 79 -24 95 -6 17 -26 98 -45 180 -20 83
-40 161 -45 175 -5 14 -12 40 -15 59 l-7 34 83 -6 c46 -3 91 -8 99 -11 8 -4
56 -69 107 -144 50 -75 139 -197 198 -270 121 -151 105 -145 219 -77 148 87
282 164 309 176 15 7 27 16 27 21 0 4 5 8 10 8 6 0 70 35 143 77 72 42 151 87
175 101 l42 24 0 -466 0 -465 38 -10 c59 -15 314 -49 467 -62 248 -20 831 -3
1033 31 34 5 92 15 130 21 114 19 102 -36 102 490 l0 461 33 -20 c17 -11 50
-30 72 -42 22 -12 76 -43 120 -69 44 -26 130 -76 190 -111 61 -35 146 -85 190
-110 128 -75 203 -115 207 -110 3 3 36 43 74 90 146 177 230 298 370 526 115
188 284 517 344 669 4 11 16 40 25 65 10 25 24 60 32 79 9 19 17 50 20 70 4
36 4 36 -73 81 -42 25 -93 54 -113 65 -67 37 -206 117 -286 165 -44 26 -96 56
-115 67 -113 61 -200 117 -193 123 4 4 69 43 143 86 321 185 519 299 578 333
62 35 63 37 59 72 -3 20 -11 51 -20 70 -8 19 -22 54 -32 79 -9 25 -21 54 -26
65 -4 11 -18 45 -30 75 -69 168 -274 542 -417 760 -98 149 -281 389 -330 434
-23 20 -8 28 -362 -179 -63 -37 -153 -89 -200 -115 -47 -26 -123 -70 -170 -97
l-85 -50 -3 462 -2 462 -43 11 c-76 20 -239 42 -387 52 -201 15 -650 20 -795
9z m710 -310 c88 -7 170 -15 183 -20 l22 -9 -2 -421 c-3 -363 -5 -423 -18
-430 -33 -18 -190 -109 -280 -161 -52 -31 -117 -68 -145 -83 -27 -16 -67 -39
-89 -53 -45 -28 -35 -31 -189 60 -54 32 -99 58 -101 58 -4 0 -220 126 -286
167 l-45 28 -3 417 c-2 390 -1 418 15 426 10 5 108 15 218 21 110 7 214 14
230 16 45 5 308 -4 490 -16z m-1938 -655 c26 -15 73 -41 103 -59 30 -18 116
-68 190 -111 74 -42 167 -96 205 -118 39 -23 86 -50 107 -60 85 -45 79 -13 76
-354 l-3 -303 -65 42 c-128 82 -358 200 -440 224 -14 4 -29 11 -35 15 -5 4
-50 20 -100 35 -49 15 -101 31 -115 35 -50 17 -186 48 -240 55 -58 7 -120 25
-120 35 0 3 6 14 13 25 8 11 31 52 52 90 68 126 304 475 320 475 2 0 26 -12
52 -26z m3235 -36 c186 -254 388 -606 506 -880 l21 -47 -82 -49 c-45 -27 -147
-87 -227 -132 -80 -46 -206 -118 -282 -162 -75 -43 -142 -78 -148 -78 -7 0
-24 8 -38 18 -15 11 -40 26 -57 34 -16 8 -118 66 -225 129 -108 63 -208 120
-223 128 l-27 15 2 335 3 335 80 48 c44 27 89 52 100 57 12 5 63 34 113 65 51
31 95 56 97 56 3 0 33 17 67 38 35 21 90 54 123 72 33 18 76 43 95 56 19 13
40 23 46 23 5 1 31 -27 56 -61z m-2145 -593 c43 -25 85 -49 93 -55 21 -13 136
-79 185 -105 22 -12 75 -43 118 -69 l78 -47 132 77 c73 42 152 88 176 102 25
14 68 38 95 55 84 49 156 87 166 87 6 0 10 -121 10 -328 l0 -329 28 -14 c15
-7 59 -32 97 -55 64 -38 263 -152 310 -179 76 -42 135 -77 135 -80 0 -2 -30
-21 -67 -41 -38 -21 -108 -61 -156 -91 -49 -29 -91 -53 -94 -53 -3 0 -49 -26
-102 -58 -53 -31 -108 -63 -123 -71 l-28 -14 0 -329 c0 -229 -3 -328 -11 -328
-6 0 -58 27 -115 60 -57 33 -108 60 -113 60 -5 0 -11 3 -13 8 -1 4 -37 27 -78
50 -75 43 -75 43 -110 125 -43 101 -124 260 -177 345 -136 221 -258 377 -425
548 l-118 121 0 326 c0 281 2 327 15 327 8 0 49 -20 92 -45z m-1531 -296 c165
-26 346 -72 421 -105 17 -8 35 -14 39 -14 30 0 319 -141 425 -207 72 -45 278
-201 332 -252 194 -181 308 -317 460 -551 43 -67 108 -190 100 -190 -5 0 -42
10 -83 22 -66 20 -98 23 -260 23 -163 0 -196 -3 -275 -24 -49 -12 -94 -27 -99
-32 -6 -5 -16 -9 -24 -9 -7 0 -55 -20 -105 -45 -217 -108 -403 -295 -498 -500
-16 -36 -32 -65 -35 -65 -6 0 -67 42 -74 51 -11 14 -139 77 -199 98 -100 36
-237 61 -339 61 -89 0 -316 -33 -337 -50 -5 -4 -23 -10 -40 -14 -16 -4 -63
-24 -105 -44 -229 -111 -411 -288 -516 -502 -19 -38 -39 -70 -43 -70 -5 0 -19
8 -32 19 -69 54 -202 116 -329 153 -66 20 -97 23 -260 22 -162 0 -195 -3 -265
-22 -219 -63 -391 -162 -533 -309 l-72 -75 0 73 c2 406 106 852 283 1204 45
90 128 237 137 245 4 3 13 16 20 30 12 22 118 170 167 231 77 98 248 264 377
367 128 103 240 175 391 251 144 74 200 97 325 136 47 15 94 31 105 35 27 11
190 46 295 63 141 23 493 21 646 -4z m3542 -866 c37 -21 74 -42 84 -48 9 -5
45 -26 80 -46 35 -20 115 -67 178 -104 63 -37 140 -81 170 -98 30 -16 76 -43
102 -59 l46 -29 -30 -67 c-42 -94 -137 -284 -183 -367 -104 -189 -280 -460
-356 -549 -8 -9 -71 23 -249 129 -58 34 -154 90 -215 125 -60 35 -147 85 -192
112 l-83 49 0 332 0 332 33 20 c17 10 39 22 48 26 8 4 46 25 82 48 37 23 69
41 72 41 2 0 44 24 93 54 49 29 115 68 148 86 32 18 63 36 69 41 16 15 35 10
103 -28z m-2073 -753 c-3 -5 -15 -10 -26 -10 -10 0 -19 5 -19 10 0 6 12 10 26
10 14 0 23 -4 19 -10z m-345 -125 l0 -74 -47 -27 c-27 -15 -92 -54 -146 -86
-54 -32 -101 -58 -104 -58 -3 0 -28 -13 -55 -30 -58 -36 -60 -36 -49 -7 28 73
144 204 240 272 43 29 145 84 159 85 1 0 2 -34 2 -75z m777 -47 c16 -18 42
-49 57 -70 51 -69 142 -86 227 -43 32 17 75 57 81 77 2 6 34 -8 71 -31 37 -22
69 -41 72 -41 9 0 160 -94 167 -104 4 -6 7 -198 5 -426 l-2 -415 -85 -13
c-122 -20 -806 -22 -950 -3 -58 7 -108 19 -112 25 -4 6 -8 194 -8 418 l0 407
33 25 c18 14 42 29 53 33 18 7 90 49 269 156 33 19 67 36 76 36 8 1 29 -14 46
-31z m-442 -2878 c374 -25 888 -95 1095 -150 19 -5 85 -21 145 -35 61 -15 121
-30 135 -35 14 -4 66 -20 115 -35 50 -15 122 -38 160 -52 39 -14 88 -31 110
-38 114 -38 358 -152 495 -232 94 -55 237 -161 274 -202 l19 -21 -3088 0
c-1699 0 -3085 4 -3079 8 5 5 36 31 69 58 33 27 62 52 65 55 19 21 229 142
345 199 292 141 576 238 950 323 143 33 415 83 505 93 30 3 93 12 140 19 47 7
126 16 175 20 50 3 124 11 165 17 161 23 901 28 1205 8z"/>
</g>
</svg>
